<svg xmlns="http://www.w3.org/2000/svg"  viewBox="0 0 100 100" width="150px" height="150px"><circle cx="77" cy="13" r="1" fill="#f1bc19"/><circle cx="50" cy="50" r="37" fill="#e6edb7"/><circle cx="83" cy="15" r="4" fill="#f1bc19"/><circle cx="87" cy="24" r="2" fill="#9f8066"/><circle cx="81" cy="76" r="2" fill="#fbcd59"/><circle cx="15" cy="64" r="4" fill="#fbcd59"/><circle cx="25" cy="87" r="2" fill="#9f8066"/><circle cx="19.5" cy="38.5" r="2.5" fill="#fff"/><circle cx="79.5" cy="40.5" r="1.5" fill="#fff"/><g><path fill="#ee3e54" d="M77.594,31.547c-0.667-0.879-1.922-1.055-2.802-0.386l-5.738,4.347 c-8.912-6.905-21.267-6.981-29.363,0.029c-3.457,2.992-5.871,7.358-6.645,11.992l-6.934,19.81c-0.214,0.612-0.119,1.29,0.256,1.818 S27.352,70,28,70h23c4.64,0,9.052-1.875,12.421-5.278c2.624-2.651,3.986-6.612,3.738-10.868c-0.249-4.244-2.039-7.993-4.912-10.287 c-5.415-4.322-11.794-4.377-16.25-0.138c-1.832,1.741-2.952,4.552-2.997,7.52c-0.043,2.815,0.873,5.315,2.579,7.038 c2.699,2.727,7.638,3.659,10.688,0.703c1.659-1.608,2.392-3.676,2.011-5.673c-0.36-1.894-1.673-3.479-3.512-4.241 c-1.021-0.422-2.19,0.062-2.614,1.082c-0.423,1.02,0.061,2.19,1.082,2.613c0.59,0.244,1.007,0.729,1.115,1.294 c0.126,0.66-0.182,1.389-0.865,2.052c-1.272,1.233-3.765,0.664-5.062-0.645c-0.93-0.938-1.448-2.456-1.422-4.163 c0.028-1.858,0.716-3.695,1.753-4.682c4.466-4.246,9.547-0.793,11,0.366c1.958,1.563,3.234,4.326,3.414,7.394 c0.18,3.078-0.787,6.002-2.587,7.82C57.966,64.547,54.564,66,51,66s-6.966-1.453-9.579-4.093c-3.668-3.705-5.248-8.517-4.46-13.554 c0.008-0.046,0.018-0.093,0.023-0.14c0.619-3.74,2.554-7.254,5.325-9.653c7.094-6.145,17.762-5.725,25.366,0.996 c0.713,0.631,1.772,0.671,2.533,0.096l7-5.304C78.088,33.682,78.261,32.428,77.594,31.547z M38.579,64.722 c0.451,0.456,0.923,0.878,1.409,1.278h-9.169l3.06-8.742C34.846,60,36.426,62.546,38.579,64.722z"/><path fill="#472b29" d="M51,70.7H28c-0.874,0-1.697-0.426-2.202-1.138s-0.635-1.63-0.346-2.455l6.914-19.753 c0.812-4.772,3.313-9.27,6.867-12.347c8.168-7.074,20.628-7.206,29.821-0.378l5.315-4.026c0.574-0.437,1.283-0.623,2-0.523 c0.714,0.099,1.347,0.47,1.783,1.043l0,0.001c0.898,1.188,0.665,2.884-0.521,3.782l-7,5.304c-1.022,0.775-2.46,0.72-3.419-0.129 c-7.338-6.486-17.62-6.904-24.444-0.991c-2.644,2.289-4.5,5.655-5.093,9.237c0,0.014-0.009,0.069-0.02,0.125 c-0.755,4.823,0.76,9.423,4.264,12.963C44.398,63.92,47.624,65.3,51,65.3s6.602-1.38,9.081-3.885 c1.663-1.68,2.555-4.403,2.386-7.287c-0.168-2.872-1.346-5.447-3.151-6.888c-1.341-1.069-6.026-4.261-10.081-0.406 c-0.894,0.851-1.511,2.532-1.536,4.186c-0.023,1.521,0.421,2.854,1.219,3.66c1.044,1.053,3.131,1.556,4.078,0.634 c0.501-0.486,0.744-1.003,0.665-1.418c-0.064-0.333-0.323-0.624-0.695-0.778c-0.667-0.275-1.186-0.795-1.461-1.462 c-0.275-0.666-0.275-1.4,0.001-2.066c0.569-1.373,2.152-2.033,3.528-1.46c2.058,0.854,3.527,2.632,3.932,4.757 c0.426,2.232-0.38,4.531-2.211,6.307c-3.348,3.244-8.739,2.252-11.673-0.714c-1.839-1.857-2.827-4.535-2.781-7.541 c0.047-3.151,1.249-6.147,3.214-8.017c4.726-4.492,11.465-4.456,17.169,0.099c3.028,2.417,4.914,6.352,5.174,10.793 c0.26,4.454-1.176,8.609-3.939,11.401C60.417,68.752,55.828,70.7,51,70.7z M54.049,31.003c-5.059,0-10.002,1.688-13.9,5.063 c-3.327,2.88-5.664,7.1-6.413,11.578l-0.03,0.116l-6.934,19.81c-0.139,0.397-0.077,0.839,0.167,1.182 C27.183,69.095,27.58,69.3,28,69.3h23c4.452,0,8.687-1.801,11.924-5.07c2.484-2.511,3.773-6.277,3.537-10.335 c-0.237-4.046-1.932-7.611-4.65-9.781c-5.124-4.092-11.143-4.161-15.331-0.178c-1.698,1.615-2.737,4.24-2.78,7.023 c-0.04,2.626,0.804,4.946,2.376,6.535c2.463,2.489,6.951,3.362,9.704,0.692c1.486-1.441,2.146-3.277,1.811-5.039 c-0.316-1.66-1.472-3.054-3.092-3.726c-0.664-0.271-1.424,0.043-1.699,0.704c-0.133,0.32-0.133,0.673,0,0.994 s0.382,0.571,0.703,0.704c0.808,0.334,1.382,1.011,1.534,1.81c0.171,0.898-0.207,1.853-1.065,2.686 c-1.575,1.525-4.493,0.913-6.046-0.654c-1.062-1.071-1.653-2.772-1.625-4.667c0.031-2.036,0.805-4.069,1.971-5.178 c4.874-4.635,10.355-0.924,11.918,0.326c2.111,1.684,3.485,4.637,3.676,7.899c0.191,3.274-0.852,6.397-2.789,8.354 C58.332,65.173,54.753,66.7,51,66.7s-7.332-1.527-10.076-4.301c-3.824-3.863-5.477-8.891-4.653-14.154l0.023-0.146 c0.645-3.898,2.67-7.568,5.557-10.067c7.362-6.375,18.417-5.956,26.288,1.001c0.462,0.409,1.154,0.436,1.647,0.062l7-5.303 c0.571-0.433,0.684-1.25,0.251-1.821c-0.21-0.276-0.516-0.455-0.859-0.503c-0.345-0.042-0.686,0.042-0.961,0.252l-6.167,4.671 l-0.424-0.328C64.274,32.689,59.104,31.003,54.049,31.003z M41.938,66.7H29.832l4.044-11.555l0.663,1.88 c0.952,2.699,2.479,5.123,4.537,7.204h0c0.402,0.407,0.846,0.81,1.356,1.23L41.938,66.7z M31.806,65.3h6.361 c-0.029-0.028-0.057-0.057-0.085-0.086l0,0c-1.751-1.771-3.144-3.773-4.154-5.974L31.806,65.3z"/></g><g><path fill="#472b29" d="M23.612,61.662c-0.052,0-0.105-0.008-0.158-0.025c-0.262-0.088-0.403-0.371-0.316-0.633 l4.888-14.662c0.093-0.28,0.194-0.609,0.307-0.979c0.95-3.102,2.717-8.875,8.27-13.67c0.208-0.179,0.525-0.157,0.705,0.052 c0.181,0.209,0.157,0.525-0.052,0.706c-5.334,4.605-7.046,10.199-7.966,13.205c-0.116,0.379-0.22,0.716-0.315,1.003L24.086,61.32 C24.017,61.529,23.822,61.662,23.612,61.662z"/></g><g><path fill="#472b29" d="M40.5,30c-0.17,0-0.336-0.087-0.43-0.243c-0.142-0.237-0.064-0.544,0.172-0.686 c3.974-2.377,8.206-3.637,12.58-3.745c0.241,0.016,0.505,0.211,0.512,0.487c0.007,0.276-0.211,0.506-0.488,0.513 c-4.199,0.104-8.267,1.316-12.091,3.603C40.676,29.978,40.588,30,40.5,30z"/></g><g><path fill="#472b29" d="M68.5,31c-0.104,0-0.208-0.032-0.297-0.099c-0.04-0.029-4.08-2.984-10.052-4.129 c-0.271-0.052-0.449-0.314-0.397-0.585c0.052-0.272,0.315-0.449,0.585-0.397c6.208,1.189,10.289,4.182,10.46,4.309 c0.221,0.165,0.268,0.478,0.103,0.699C68.803,30.93,68.652,31,68.5,31z"/></g><g><path fill="#472b29" d="M46.5,74h-16c-0.276,0-0.5-0.224-0.5-0.5s0.224-0.5,0.5-0.5h16c0.276,0,0.5,0.224,0.5,0.5 S46.776,74,46.5,74z"/></g><g><path fill="#472b29" d="M51.5,74c-0.276,0-0.5-0.224-0.5-0.5s0.224-0.5,0.5-0.5c7.861,0,14.095-3.809,17.553-10.724 c0.124-0.246,0.425-0.35,0.671-0.224c0.247,0.124,0.347,0.424,0.224,0.671C66.312,69.995,59.76,74,51.5,74z"/></g><g><path fill="#472b29" d="M70.715,59.72c-0.041,0-0.082-0.005-0.124-0.016c-0.268-0.067-0.43-0.34-0.362-0.607 c1.71-6.734-1.158-13.328-1.187-13.394c-0.096-0.217-0.027-0.472,0.167-0.61l7-5c0.224-0.158,0.537-0.106,0.697,0.116 c0.161,0.226,0.108,0.537-0.116,0.698l-6.677,4.769c0.61,1.542,2.664,7.453,1.086,13.667C71.142,59.569,70.938,59.72,70.715,59.72z"/></g></svg>